<mxfile host="65bd71144e" modified="2021-05-22T18:07:21.985Z" agent="5.0 (Windows NT 10.0; Win64; x64) AppleWebKit/537.36 (KHTML, like Gecko) Code/1.56.2 Chrome/89.0.4389.114 Electron/12.0.4 Safari/537.36" version="14.7.0" etag="p96kjjFcSQp91EFSWDEB" type="embed">
    <diagram id="NlKpK8F6OsHW_GdwONzk" name="ページ1">
        <mxGraphModel dx="355" dy="185" grid="1" gridSize="10" guides="1" tooltips="1" connect="1" arrows="1" fold="1" page="1" pageScale="1" pageWidth="827" pageHeight="1169" math="0" shadow="0">
            <root>
                <mxCell id="0"/>
                <mxCell id="1" parent="0"/>
                <mxCell id="42" value="" style="group" vertex="1" connectable="0" parent="1">
                    <mxGeometry x="120" y="280" width="530" height="240" as="geometry"/>
                </mxCell>
                <mxCell id="36" value="" style="ellipse;whiteSpace=wrap;html=1;strokeColor=#6c8ebf;fillColor=#dae8fc;" vertex="1" parent="42">
                    <mxGeometry width="520" height="240" as="geometry"/>
                </mxCell>
                <mxCell id="37" value="" style="ellipse;whiteSpace=wrap;html=1;fillColor=#d5e8d4;strokeColor=#82b366;" vertex="1" parent="42">
                    <mxGeometry x="40" y="60" width="360" height="160" as="geometry"/>
                </mxCell>
                <mxCell id="38" value="" style="ellipse;whiteSpace=wrap;html=1;fillColor=#ffe6cc;strokeColor=#d79b00;" vertex="1" parent="42">
                    <mxGeometry x="240" y="140" width="40" height="40" as="geometry"/>
                </mxCell>
                <mxCell id="31" value="" style="ellipse;whiteSpace=wrap;html=1;fillColor=#ffe6cc;strokeColor=#d79b00;" vertex="1" parent="42">
                    <mxGeometry x="80" y="120" width="120" height="80" as="geometry"/>
                </mxCell>
                <mxCell id="30" value="" style="ellipse;whiteSpace=wrap;html=1;fillColor=#d5e8d4;strokeColor=#82b366;" vertex="1" parent="42">
                    <mxGeometry x="440" y="120" width="40" height="40" as="geometry"/>
                </mxCell>
                <mxCell id="40" value="" style="ellipse;whiteSpace=wrap;html=1;fillColor=#ffe6cc;strokeColor=#d79b00;" vertex="1" parent="42">
                    <mxGeometry x="320" y="140" width="40" height="40" as="geometry"/>
                </mxCell>
                <mxCell id="41" value="" style="ellipse;whiteSpace=wrap;html=1;fillColor=#f8cecc;strokeColor=#b85450;" vertex="1" parent="42">
                    <mxGeometry x="120" y="160" width="40" height="40" as="geometry"/>
                </mxCell>
                <mxCell id="43" value="" style="group" vertex="1" connectable="0" parent="42">
                    <mxGeometry x="-10" y="120" width="540" height="80" as="geometry"/>
                </mxCell>
                <mxCell id="2" value="" style="endArrow=classic;startArrow=classic;html=1;" edge="1" parent="43">
                    <mxGeometry width="50" height="50" relative="1" as="geometry">
                        <mxPoint x="10" as="sourcePoint"/>
                        <mxPoint x="530" as="targetPoint"/>
                    </mxGeometry>
                </mxCell>
                <mxCell id="3" value="" style="endArrow=classic;startArrow=classic;html=1;" edge="1" parent="43">
                    <mxGeometry width="50" height="50" relative="1" as="geometry">
                        <mxPoint x="50" y="19" as="sourcePoint"/>
                        <mxPoint x="410" y="19" as="targetPoint"/>
                    </mxGeometry>
                </mxCell>
                <mxCell id="4" value="" style="endArrow=classic;startArrow=classic;html=1;" edge="1" parent="43">
                    <mxGeometry width="50" height="50" relative="1" as="geometry">
                        <mxPoint x="90" y="40" as="sourcePoint"/>
                        <mxPoint x="210" y="40" as="targetPoint"/>
                    </mxGeometry>
                </mxCell>
                <mxCell id="5" value="" style="endArrow=classic;startArrow=classic;html=1;" edge="1" parent="43">
                    <mxGeometry width="50" height="50" relative="1" as="geometry">
                        <mxPoint x="130" y="60" as="sourcePoint"/>
                        <mxPoint x="170" y="60" as="targetPoint"/>
                    </mxGeometry>
                </mxCell>
                <mxCell id="6" value="" style="endArrow=classic;startArrow=classic;html=1;" edge="1" parent="43">
                    <mxGeometry width="50" height="50" relative="1" as="geometry">
                        <mxPoint x="250" y="40" as="sourcePoint"/>
                        <mxPoint x="290" y="40" as="targetPoint"/>
                    </mxGeometry>
                </mxCell>
                <mxCell id="7" value="" style="endArrow=classic;startArrow=classic;html=1;" edge="1" parent="43">
                    <mxGeometry width="50" height="50" relative="1" as="geometry">
                        <mxPoint x="330" y="40" as="sourcePoint"/>
                        <mxPoint x="370" y="40" as="targetPoint"/>
                    </mxGeometry>
                </mxCell>
                <mxCell id="8" value="" style="endArrow=classic;startArrow=classic;html=1;" edge="1" parent="43">
                    <mxGeometry width="50" height="50" relative="1" as="geometry">
                        <mxPoint x="450" y="20" as="sourcePoint"/>
                        <mxPoint x="490" y="20" as="targetPoint"/>
                    </mxGeometry>
                </mxCell>
                <mxCell id="10" value="0" style="text;html=1;align=center;verticalAlign=middle;resizable=0;points=[];autosize=1;strokeColor=none;" vertex="1" parent="43">
                    <mxGeometry width="20" height="20" as="geometry"/>
                </mxCell>
                <mxCell id="11" value="1" style="text;html=1;align=center;verticalAlign=middle;resizable=0;points=[];autosize=1;strokeColor=none;" vertex="1" parent="43">
                    <mxGeometry x="40" y="20" width="20" height="20" as="geometry"/>
                </mxCell>
                <mxCell id="12" value="2" style="text;html=1;align=center;verticalAlign=middle;resizable=0;points=[];autosize=1;strokeColor=none;" vertex="1" parent="43">
                    <mxGeometry x="80" y="40" width="20" height="20" as="geometry"/>
                </mxCell>
                <mxCell id="13" value="3" style="text;html=1;align=center;verticalAlign=middle;resizable=0;points=[];autosize=1;strokeColor=none;" vertex="1" parent="43">
                    <mxGeometry x="120" y="60" width="20" height="20" as="geometry"/>
                </mxCell>
                <mxCell id="14" value="4" style="text;html=1;align=center;verticalAlign=middle;resizable=0;points=[];autosize=1;strokeColor=none;" vertex="1" parent="43">
                    <mxGeometry x="160" y="60" width="20" height="20" as="geometry"/>
                </mxCell>
                <mxCell id="15" value="5" style="text;html=1;align=center;verticalAlign=middle;resizable=0;points=[];autosize=1;strokeColor=none;" vertex="1" parent="43">
                    <mxGeometry x="200" y="40" width="20" height="20" as="geometry"/>
                </mxCell>
                <mxCell id="16" value="6" style="text;html=1;align=center;verticalAlign=middle;resizable=0;points=[];autosize=1;strokeColor=none;" vertex="1" parent="43">
                    <mxGeometry x="240" y="40" width="20" height="20" as="geometry"/>
                </mxCell>
                <mxCell id="17" value="7" style="text;html=1;align=center;verticalAlign=middle;resizable=0;points=[];autosize=1;strokeColor=none;" vertex="1" parent="43">
                    <mxGeometry x="280" y="40" width="20" height="20" as="geometry"/>
                </mxCell>
                <mxCell id="18" value="8" style="text;html=1;align=center;verticalAlign=middle;resizable=0;points=[];autosize=1;strokeColor=none;" vertex="1" parent="43">
                    <mxGeometry x="320" y="40" width="20" height="20" as="geometry"/>
                </mxCell>
                <mxCell id="19" value="9" style="text;html=1;align=center;verticalAlign=middle;resizable=0;points=[];autosize=1;strokeColor=none;" vertex="1" parent="43">
                    <mxGeometry x="360" y="40" width="20" height="20" as="geometry"/>
                </mxCell>
                <mxCell id="20" value="10" style="text;html=1;align=center;verticalAlign=middle;resizable=0;points=[];autosize=1;strokeColor=none;" vertex="1" parent="43">
                    <mxGeometry x="395" y="20" width="30" height="20" as="geometry"/>
                </mxCell>
                <mxCell id="21" value="11" style="text;html=1;align=center;verticalAlign=middle;resizable=0;points=[];autosize=1;strokeColor=none;" vertex="1" parent="43">
                    <mxGeometry x="435" y="20" width="30" height="20" as="geometry"/>
                </mxCell>
                <mxCell id="22" value="12" style="text;html=1;align=center;verticalAlign=middle;resizable=0;points=[];autosize=1;strokeColor=none;" vertex="1" parent="43">
                    <mxGeometry x="480" y="20" width="30" height="20" as="geometry"/>
                </mxCell>
                <mxCell id="23" value="13" style="text;html=1;align=center;verticalAlign=middle;resizable=0;points=[];autosize=1;strokeColor=none;" vertex="1" parent="43">
                    <mxGeometry x="510" width="30" height="20" as="geometry"/>
                </mxCell>
            </root>
        </mxGraphModel>
    </diagram>
</mxfile>